<?xml version="1.0" standalone="no"?><!DOCTYPE svg PUBLIC "-//W3C//DTD SVG 1.1//EN" "http://www.w3.org/Graphics/SVG/1.1/DTD/svg11.dtd"><svg t="1663661404376" class="icon" viewBox="0 0 1024 1024" version="1.1" xmlns="http://www.w3.org/2000/svg" p-id="6430" xmlns:xlink="http://www.w3.org/1999/xlink" width="64" height="64"><path d="M613.66 519.85H412.4c-5.37 0-9.72-4.35-9.72-9.72 0 0 0.33-205.96 0.54-286.07 0.07-25.5 12-45.51 30.68-61.2 37.94-31.86 76.53-62.95 115.08-94.07 15.46-12.48 32.76-16.26 51.65-7.97 17.95 7.88 22.75 23.3 22.76 40.99 0.09 120.48-0.02 407.16-0.02 407.16v1.16c0.01 5.37-4.34 9.72-9.71 9.72z m83.59 233.55c0 57.65 0.03 89.38-0.01 147.03-0.02 39.75-23.53 65.87-63.57 66.27-81.28 0.82-162.59 0.63-243.86-0.75-39.13-0.67-62.01-26.48-62.08-66.15-0.18-116.46 0.38-148.31-0.36-264.76-0.2-31.37 24.6-65.56 65.32-64.42 80.65 2.27 161.41 0.65 242.12 0.68 37.95 0.01 62.26 24.24 62.38 62.63 0.19 59.39 0.05 60.09 0.06 119.47z m-254.99-80.92c0-11.05-8.95-20-20-20s-20 8.95-20 20v221.08c0 11.05 8.95 20 20 20s20-8.95 20-20V672.48z" p-id="6431"></path></svg>