<?xml version="1.0" standalone="no"?><!DOCTYPE svg PUBLIC "-//W3C//DTD SVG 1.1//EN" "http://www.w3.org/Graphics/SVG/1.1/DTD/svg11.dtd"><svg t="1663661395212" class="icon" viewBox="0 0 1024 1024" version="1.1" xmlns="http://www.w3.org/2000/svg" p-id="5980" xmlns:xlink="http://www.w3.org/1999/xlink" width="64" height="64"><path d="M806.76864 277.2992h-147.6608V182.80448c0-26.0096-22.15936-47.26784-49.21344-47.26784h-196.87424c-27.07456 0-49.23392 21.27872-49.23392 47.26784v94.49472h-147.6608c-54.14912 0-98.42688 42.51648-98.42688 94.5152v378.01984c0 51.99872 44.27776 94.49472 98.42688 94.49472h590.6432c54.12864 0 98.42688-42.496 98.42688-94.49472V371.8144c0-51.99872-44.29824-94.5152-98.42688-94.5152zM412.99968 182.80448h196.89472v94.49472h-196.89472V182.80448z m295.3216 425.2672h-147.6608v141.76256H462.2336v-141.76256h-147.6608v-94.49472h147.6608v-141.76256h98.42688v141.76256h147.6608v94.49472z" p-id="5981"></path></svg>