<?xml version="1.0" standalone="no"?><!DOCTYPE svg PUBLIC "-//W3C//DTD SVG 1.1//EN" "http://www.w3.org/Graphics/SVG/1.1/DTD/svg11.dtd"><svg t="1663661368252" class="icon" viewBox="0 0 1024 1024" version="1.1" xmlns="http://www.w3.org/2000/svg" p-id="4930" xmlns:xlink="http://www.w3.org/1999/xlink" width="64" height="64"><path d="M923 511.5c0 58.8-47.8 106.5-106.8 106.5s-106.8-47.7-106.8-106.5S757.2 405 816.2 405 923 452.6 923 511.5zM766.1 731.4c0.7 7.1-1.5 14.2-6.1 19.7-98.8 118.2-260.2 163.4-406 113.8C208.1 815.2 107.8 681 101.6 527c-6.2-154 82.9-295.9 224.3-357.1 141.4-61.3 305.9-29.2 413.9 80.6 5.1 5 8 11.9 8 19 0 7.2-2.9 14-8 19-58.1 54.1-178.7 173.4-226.6 221.3 49.8 42.3 171.5 145.9 243.1 203.4 5.6 4.6 9.1 11.1 9.8 18.2zM415.8 363.6c0-23.6-19.2-42.7-42.8-42.7-23.6 0-42.8 19.1-42.8 42.7s19.2 42.7 42.8 42.7c23.6 0 42.8-19.1 42.8-42.7z" p-id="4931"></path></svg>