<?xml version="1.0" standalone="no"?><!DOCTYPE svg PUBLIC "-//W3C//DTD SVG 1.1//EN" "http://www.w3.org/Graphics/SVG/1.1/DTD/svg11.dtd"><svg t="1663661407690" class="icon" viewBox="0 0 1024 1024" version="1.1" xmlns="http://www.w3.org/2000/svg" p-id="6580" xmlns:xlink="http://www.w3.org/1999/xlink" width="64" height="64"><path d="M656.81 562.26c0 79.02-64.29 143.31-143.31 143.31s-143.31-64.29-143.31-143.31 64.29-143.31 143.31-143.31 143.31 64.29 143.31 143.31z m275.88 237.88c-0.02 42.44-23.89 66.28-66.79 66.33-117.65 0.13-235.3 0.05-352.95 0.05-117.25 0-234.51 0.01-351.76-0.01-26.43 0-49.01-7.84-60.47-33.75-4.05-9.16-6.38-19.88-6.4-29.9-0.39-157-0.36-314-0.21-471 0.04-39.03 24.13-62.89 63.44-63.16 41.73-0.29 83.48-0.72 125.2 0.2 20.73 0.46 34.78-7.66 44.8-25.22 8.66-15.17 18.01-29.95 27.31-44.75 15.33-24.38 36.67-36.94 66.36-36.61 64.38 0.73 128.78 0.51 193.17 0.09 29.18-0.19 50.94 10.1 65.4 36.76 10.17 18.75 23.49 35.79 35.4 53.6 8.12 12.14 19.97 15.97 33.97 15.9 38.55-0.17 77.17 1.27 115.65-0.4 45.43-1.96 68.34 32.64 68.19 68.02-0.66 154.61-0.25 309.23-0.31 463.85zM301.9 369.95c0-11.05-8.95-20-20-20h-62.37c-11.05 0-20 8.95-20 20s8.95 20 20 20h62.37c11.05 0 20-8.96 20-20z m394.91 192.31c0-101.08-82.23-183.31-183.31-183.31s-183.31 82.23-183.31 183.31 82.23 183.31 183.31 183.31 183.31-82.23 183.31-183.31z" p-id="6581"></path></svg>