<?xml version="1.0" standalone="no"?><!DOCTYPE svg PUBLIC "-//W3C//DTD SVG 1.1//EN" "http://www.w3.org/Graphics/SVG/1.1/DTD/svg11.dtd"><svg t="1663661411557" class="icon" viewBox="0 0 1024 1024" version="1.1" xmlns="http://www.w3.org/2000/svg" p-id="6730" xmlns:xlink="http://www.w3.org/1999/xlink" width="64" height="64"><path d="M780.95355224 90.125H240.47564697C190.80645752 90.125 150.39050293 130.54095459 150.39050293 180.2019043v90.07690429c0 14.52667237 10.40679932 26.97692872 24.71099853 29.5477295l334.0475464 60.05126952c3.55133057 0.66741943 7.20153809 0.65917969 10.75286865-0.03295898l326.54113769-60.05126953c14.23828125-2.62023926 24.58740234-15.03753662 24.59564209-29.51477051V180.2019043C871.03045654 130.54095459 830.61450195 90.125 780.95355224 90.125z m79.29931641 277.20153809a29.79244995 29.79244995 0 0 0-24.59564209-6.48468018l-324.95086669 59.0625-324.91790772-59.0625c-16.35589599-2.93334961-31.99493408 7.94311523-34.92828369 24.29901123-0.31311036 1.73034668-0.46966553 3.4854126-0.46966553 5.24871826v450.40100098c0 49.66094971 40.41595459 90.0769043 90.0769043 90.0769043H780.9453125c49.66094971 0 90.0769043-40.41595459 90.0769043-90.0769043V390.3895874c0.00823974-8.89068604-3.95507813-17.35290528-10.76934815-23.06304931zM600.6102295 600.57727051c16.58660888 0 30.02563477 13.44726563 30.02563475 30.02563476s-13.44726563 30.02563477-30.02563476 30.02563476h-59.86999511v30.02563477h59.86999512c16.58660888 0 30.02563477 13.44726563 30.02563476 30.02563477s-13.44726563 30.02563477-30.02563476 30.02563476h-59.86999512v60.44677735c0 16.58660888-13.44726563 30.02563477-30.02563477 30.02563477-16.58660888 0-30.02563477-13.44726563-30.02563477-30.02563477V750.70544434h-60.29022216c-16.58660888 0-30.02563477-13.44726563-30.02563477-30.02563477s13.44726563-30.02563477 30.02563477-30.02563477H480.68896484v-30.02563477h-60.29022216c-16.58660888 0-30.02563477-13.44726563-30.02563477-30.02563476s13.44726563-30.02563477 30.02563477-30.02563477h48.01300048l-69.45281982-69.12322998c-11.09893799-12.30194092-10.12664795-31.26983643 2.16705322-42.3687744 11.42852783-10.31616211 28.81439209-10.29968262 40.22644044 0.02471924l68.85131835 68.70300292 71.55395508-69.05731201c11.9229126-11.52740479 30.93200684-11.20605469 42.45941162 0.71685791 11.4944458 11.86523438 11.1895752 30.79193115-0.66741944 42.28637696-0.02471924 0.02471924-0.05767822 0.04943848-0.08239745 0.08239745l-71.49627686 68.72772217h48.63922119v0.00823975z" p-id="6731"></path></svg>