<?xml version="1.0" standalone="no"?><!DOCTYPE svg PUBLIC "-//W3C//DTD SVG 1.1//EN" "http://www.w3.org/Graphics/SVG/1.1/DTD/svg11.dtd"><svg t="1663661354520" class="icon" viewBox="0 0 1024 1024" version="1.1" xmlns="http://www.w3.org/2000/svg" p-id="4479" xmlns:xlink="http://www.w3.org/1999/xlink" width="64" height="64"><path d="M917.13536 265.793536c-13.285376-6.639616-21.27872-21.261312-19.92704-37.204992 3.241984-38.30272-9.274368-43.936768-17.256448-54.56384-7.959552-10.625024-48.533504-11.870208-61.815808-15.859712-13.297664-3.985408-22.207488-52.119552-37.866496-63.777792-16.270336-12.11392-58.464256-2.656256-78.389248 41.194496-19.939328 43.84768 0 154.133504 0 154.133504-2.33984 16.940032-30.568448 7.973888-30.568448 7.973888-59.79136-15.944704-107.298816-7.973888-107.298816-7.973888-92.130304 13.21472-154.729472 49.283072-197.163008 94.700544-80.745472 74.989568-99.1488 174.147584-99.748864 209.496064-1.047552 61.9008 20.926464 104.64256 11.621376 116.59776-1.334272 9.306112-42.058752-5.403648-103.642112-7.969792-74.569728-3.10784-116.927488 34.545664-115.610624 49.165312 1.321984 14.623744 30.572544 23.917568 43.850752 30.5664 13.284352 6.63552 21.279744 21.255168 19.93216 37.195776-3.241984 38.305792 9.275392 43.935744 17.251328 54.56384 7.964672 10.627072 48.531456 11.871232 61.821952 15.867904 13.290496 3.985408 22.20544 52.115456 37.860352 63.776768 16.270336 12.114944 58.463232 2.65728 78.396416-41.193472 19.93216-43.850752 0-154.136576 0-154.136576 2.333696-16.940032 30.5664-7.969792 30.5664-7.969792 59.792384 15.940608 107.298816 7.969792 107.298816 7.969792 92.150784-13.216768 154.771456-49.303552 197.20704-94.739456 80.704512-74.984448 99.0976-174.11072 99.705856-209.455104 1.048576-61.906944-20.92544-104.641536-11.62752-116.600832 1.34144-9.305088 42.061824 5.404672 103.64416 7.970816 74.573824 3.104768 116.926464-34.545664 115.6096-49.164288C959.670272 281.731072 930.420736 272.438272 917.13536 265.793536z" p-id="4480"></path></svg>