<?xml version="1.0" standalone="no"?><!DOCTYPE svg PUBLIC "-//W3C//DTD SVG 1.1//EN" "http://www.w3.org/Graphics/SVG/1.1/DTD/svg11.dtd"><svg t="1663661382728" class="icon" viewBox="0 0 1024 1024" version="1.1" xmlns="http://www.w3.org/2000/svg" p-id="5530" xmlns:xlink="http://www.w3.org/1999/xlink" width="64" height="64"><path d="M135.68 699.47392h752.64c13.43488 0 26.86976-5.36576 37.62176-16.0768 10.752-10.71104 16.13824-24.10496 16.13824-37.4784 0-16.0768-5.38624-26.78784-16.13824-37.49888-10.752-10.71104-21.504-16.0768-37.62176-16.0768h-5.38624c-10.752-72.2944-40.30464-136.6016-88.6784-192.8192-48.39424-56.23808-107.52-93.73696-177.41824-115.15904 2.68288-5.36576 2.68288-10.71104 2.68288-13.39392 0-29.47072-10.752-56.23808-32.256-74.99776C568.44288 174.55104 541.57312 163.84 512 163.84s-56.44288 10.71104-75.264 32.1536c-18.82112 21.4016-32.256 45.50656-32.256 74.9568v16.0768a360.12032 360.12032 0 0 0-177.39776 112.49664c-48.39424 56.23808-75.264 120.50432-86.016 192.8192h-5.38624c-8.06912 0-13.43488 2.6624-21.504 5.36576-8.06912 2.6624-13.43488 8.02816-16.11776 10.71104-5.38624 5.34528-8.06912 10.71104-10.752 16.05632A50.29888 50.29888 0 0 0 81.92 645.89824c0 13.39392 5.38624 26.78784 16.13824 37.49888 10.752 10.71104 24.1664 16.0768 37.62176 16.0768M512 217.3952c13.43488 0 26.89024 5.36576 37.64224 16.0768 10.752 10.71104 16.11776 21.42208 16.11776 37.4784v2.70336c-10.752 0-18.82112-2.68288-26.86976-2.68288h-53.76c-8.06912 0-18.8416 2.6624-26.89024 2.6624v-2.6624c0-13.39392 5.38624-26.78784 16.13824-37.49888 10.752-10.71104 24.1664-16.0768 37.62176-16.0768M286.208 503.97184c16.13824-26.78784 40.32512-50.8928 64.512-72.31488 24.18688-21.42208 56.44288-34.816 88.69888-42.84416h8.06912c8.06912 0 13.43488 2.6624 18.82112 8.02816 5.36576 5.34528 8.06912 10.71104 8.06912 18.7392 0 5.36576 0 8.04864-2.70336 13.39392-2.68288 2.6624-5.36576 8.02816-8.04864 10.71104-2.70336 2.68288-8.06912 5.36576-10.752 5.36576-16.13824 5.34528-32.256 10.71104-48.39424 21.42208a156.5696 156.5696 0 0 0-40.32512 29.45024 141.08672 141.08672 0 0 0-32.256 37.49888c-2.68288 2.6624-2.68288 5.36576-5.36576 8.02816-2.68288 2.68288-5.38624 5.36576-8.06912 5.36576-2.68288 2.6624-8.06912 2.6624-10.752 2.6624-8.06912 0-13.43488-2.6624-18.82112-8.02816-5.36576-5.34528-8.04864-10.71104-8.04864-18.7392s2.6624-13.39392 5.36576-18.7392m602.112 249.05728H135.68c-13.43488 0-26.86976 5.36576-37.62176 16.0768C87.30624 779.81696 81.92 790.528 81.92 806.58432c0 16.0768 5.36576 26.78784 16.13824 37.49888 10.73152 10.71104 24.1664 16.0768 37.62176 16.0768h752.64c13.43488 0 26.86976-5.36576 37.62176-16.0768 10.752-10.71104 16.13824-24.10496 16.13824-37.4784 0-16.0768-5.36576-26.78784-16.13824-37.49888-10.73152-10.71104-24.1664-16.0768-37.62176-16.0768" p-id="5531"></path></svg>